HIERARCHY
ROOT joint_Root
{
	OFFSET 0.0 0.0 0.0
	CHANNELS 6 Xposition Yposition Zposition Zrotation Xrotation Yrotation 
	JOINT Hips
	{
		OFFSET -0.726466 93.3139 -2.00062
		CHANNELS 6 Xposition Yposition Zposition Zrotation Xrotation Yrotation 
		JOINT Spine
		{
			OFFSET 15.7357 0.0 0.0
			CHANNELS 6 Xposition Yposition Zposition Zrotation Xrotation Yrotation 
			JOINT Chest
			{
				OFFSET 8.98455 -0.406207 0.0
				CHANNELS 6 Xposition Yposition Zposition Zrotation Xrotation Yrotation 
				JOINT Neck
				{
					OFFSET 16.3773 0.0 0.0
					CHANNELS 6 Xposition Yposition Zposition Zrotation Xrotation Yrotation 
					JOINT Head
					{
						OFFSET 6.45672 0.0 0.0
						CHANNELS 6 Xposition Yposition Zposition Zrotation Xrotation Yrotation 
						End Site
						{
							OFFSET 0.0 0.0 0.0
						}
					}
				}
				JOINT Shoulder_L
				{
					OFFSET 12.9942 -0.242716 4.98039
					CHANNELS 6 Xposition Yposition Zposition Zrotation Xrotation Yrotation 
					JOINT UpperArm_L
					{
						OFFSET 5.34809 0.0 0.0
						CHANNELS 6 Xposition Yposition Zposition Zrotation Xrotation Yrotation 
						JOINT LowerArm_L
						{
							OFFSET 24.3286 1.87007e-05 0.0
							CHANNELS 6 Xposition Yposition Zposition Zrotation Xrotation Yrotation 
							JOINT Hand_L
							{
								OFFSET 22.2916 0.0 0.0
								CHANNELS 6 Xposition Yposition Zposition Zrotation Xrotation Yrotation 
								End Site
								{
									OFFSET 0.0 0.0 0.0
								}
							}
						}
					}
				}
				JOINT Shoulder_R
				{
					OFFSET 12.9945 -0.242716 -4.98039
					CHANNELS 6 Xposition Yposition Zposition Zrotation Xrotation Yrotation 
					JOINT UpperArm_R
					{
						OFFSET -5.34813 0.0 0.0
						CHANNELS 6 Xposition Yposition Zposition Zrotation Xrotation Yrotation 
						JOINT LowerArm_R
						{
							OFFSET -24.3289 0.000322201 0.0
							CHANNELS 6 Xposition Yposition Zposition Zrotation Xrotation Yrotation 
							JOINT Hand_R
							{
								OFFSET -22.2915 -0.000108084 0.0
								CHANNELS 6 Xposition Yposition Zposition Zrotation Xrotation Yrotation 
								End Site
								{
									OFFSET 0.0 0.0 0.0
								}
							}
						}
					}
				}
			}
		}
		JOINT UpperLeg_L
		{
			OFFSET -2.19248 -6.46944 0.0
			CHANNELS 6 Xposition Yposition Zposition Zrotation Xrotation Yrotation 
			JOINT LowerLeg_L
			{
				OFFSET 39.0811 0.0 -1.23785e-05
				CHANNELS 6 Xposition Yposition Zposition Zrotation Xrotation Yrotation 
				JOINT Foot_L
				{
					OFFSET 40.9854 0.0 -1.26872e-05
					CHANNELS 6 Xposition Yposition Zposition Zrotation Xrotation Yrotation 
					JOINT Toes_L
					{
						OFFSET 11.7543 0.0 0.0
						CHANNELS 6 Xposition Yposition Zposition Zrotation Xrotation Yrotation 
						End Site
						{
							OFFSET 0.0 0.0 0.0
						}
					}
				}
			}
		}
		JOINT UpperLeg_R
		{
			OFFSET -2.19251 6.46944 0.0
			CHANNELS 6 Xposition Yposition Zposition Zrotation Xrotation Yrotation 
			JOINT LowerLeg_R
			{
				OFFSET -39.0811 -0.00228153 -0.0401928
				CHANNELS 6 Xposition Yposition Zposition Zrotation Xrotation Yrotation 
				JOINT Foot_R
				{
					OFFSET -40.9854 0.0 0.0
					CHANNELS 6 Xposition Yposition Zposition Zrotation Xrotation Yrotation 
					JOINT Toes_R
					{
						OFFSET -11.7543 0.0 0.0
						CHANNELS 6 Xposition Yposition Zposition Zrotation Xrotation Yrotation 
						End Site
						{
							OFFSET 0.0 0.0 0.0
						}
					}
				}
			}
		}
	}
}
MOTION
Frames:	4
Frame Time:	0.0333333
0.000000 0.000000 0.000000 0.000000 0.000000 -0.000000 -1.394830 93.288700 -1.406070 89.170100 -5.178050 -1.138860 15.735700 0.000005 -0.000001 80.679900 87.118900 -78.913100 8.984550 -0.406207 -0.000000 -2.060930 -1.084370 3.513680 16.377300 -0.000001 -0.000001 1.259980 -0.123711 -2.395550 6.456720 -0.000001 -0.000000 4.906040 -0.536118 -2.809310 12.994200 -0.242716 4.980390 -84.210700 -10.525900 -60.969400 5.348090 -0.000007 -0.000001 -96.524100 -61.131700 -123.912000 24.328600 0.000019 0.000005 2.046050 9.269380 -12.506300 22.291600 -0.000001 0.000005 27.811400 5.267780 0.956295 12.994500 -0.242716 -4.980390 88.297800 4.792820 -70.420300 -5.348130 -0.000001 -0.000004 -64.584900 28.592600 -8.427360 -24.328900 0.000322 -0.000009 4.046830 11.364900 -19.754200 -22.291500 -0.000108 -0.000004 10.496600 5.364520 -1.817620 -2.192480 -6.469440 -0.000000 -177.084000 -11.749600 -3.711980 39.081100 -0.000007 -0.000012 -0.047065 0.194933 13.573700 40.985400 -0.000006 -0.000013 -0.854143 3.021080 -60.943900 11.754300 -0.000000 0.000003 -0.000000 -0.000004 -16.577600 -2.192510 6.469440 -0.000001 -179.764000 10.311300 177.717000 -39.081100 -0.002282 -0.040193 -0.014373 0.086130 11.618800 -40.985400 0.000008 0.000006 3.320820 7.684360 -61.181800 -11.754300 -0.000006 -0.000006 -0.006331 -0.073813 -19.577400
0.000000 0.000000 0.000000 0.000000 0.000000 -0.000000 -1.398730 93.276500 -1.377810 89.147000 -5.072270 -1.063770 15.735700 0.000005 -0.000001 80.754800 87.111500 -79.047800 8.984550 -0.406207 -0.000000 -2.045870 -1.073990 3.394450 16.377300 -0.000001 -0.000001 1.304230 -0.088022 -2.423980 6.456720 -0.000001 -0.000000 5.028010 -0.501678 -2.846890 12.994200 -0.242716 4.980390 -84.137300 -10.658800 -60.962700 5.348090 -0.000007 -0.000001 -95.060500 -60.650200 -124.187000 24.328600 0.000019 0.000005 2.099010 8.022380 -14.717600 22.291600 -0.000001 0.000005 26.460200 5.295460 0.194000 12.994500 -0.242716 -4.980390 88.315500 4.760530 -70.488400 -5.348130 -0.000001 -0.000004 -64.290800 28.352200 -8.544270 -24.328900 0.000322 -0.000009 4.019380 11.494100 -19.428600 -22.291500 -0.000108 -0.000004 10.589000 5.360520 -1.695520 -2.192480 -6.469440 -0.000000 -177.030000 -11.623300 -3.712370 39.081100 -0.000007 -0.000012 -0.047908 0.195990 13.736000 40.985400 -0.000006 -0.000013 -0.857738 3.049360 -61.031300 11.754300 -0.000000 0.000003 -0.000000 -0.000003 -16.577600 -2.192510 6.469440 -0.000001 -179.746000 10.393600 177.778000 -39.081100 -0.002282 -0.040193 -0.014534 0.086213 11.709900 -40.985400 0.000008 0.000006 3.335640 7.635130 -61.255900 -11.754300 -0.000006 -0.000006 -0.006316 -0.073683 -19.572100
0.000000 0.000000 0.000000 0.000000 0.000000 -0.000000 -1.380120 93.269100 -1.344280 89.151500 -4.969930 -0.914254 15.735700 0.000005 -0.000001 80.733600 87.097400 -79.093700 8.984550 -0.406207 -0.000000 -2.019290 -1.074500 3.260330 16.377300 -0.000001 -0.000001 1.425590 0.069444 -2.607890 6.456720 -0.000001 -0.000000 5.113120 -0.333412 -2.970530 12.994200 -0.242716 4.980390 -84.053200 -10.860900 -61.065100 5.348090 -0.000007 -0.000001 -92.035600 -60.415200 -123.954000 24.328600 0.000019 0.000005 2.058720 6.504880 -17.610400 22.291600 -0.000001 0.000005 24.393800 5.333540 -0.900387 12.994500 -0.242716 -4.980390 88.307300 4.790170 -70.512200 -5.348130 -0.000001 -0.000004 -64.096100 27.937400 -8.736680 -24.328900 0.000322 -0.000009 4.017440 11.674400 -19.145700 -22.291500 -0.000108 -0.000004 10.725100 5.360480 -1.694220 -2.192480 -6.469440 -0.000000 -177.015000 -11.542200 -3.576860 39.081100 -0.000007 -0.000012 -0.048863 0.198924 13.800500 40.985400 -0.000006 -0.000013 -0.839897 3.064840 -61.086400 11.754300 -0.000000 0.000003 -0.000000 -0.000004 -16.577600 -2.192510 6.469440 -0.000001 -179.792000 10.502300 177.929000 -39.081100 -0.002282 -0.040193 -0.013820 0.082202 11.788700 -40.985400 0.000008 0.000006 3.402390 7.634040 -61.343600 -11.754300 -0.000006 -0.000006 -0.006105 -0.071785 -19.494700
0.000000 0.000000 0.000000 0.000000 0.000000 -0.000000 -1.322250 93.262600 -1.332380 89.149200 -4.940430 -0.822017 15.735700 0.000005 -0.000001 80.268300 87.100900 -78.687800 8.984550 -0.406207 -0.000000 -2.034160 -1.114920 3.140850 16.377300 -0.000001 -0.000001 1.552520 0.281748 -2.787050 6.456720 -0.000001 -0.000000 5.131990 -0.062281 -3.187150 12.994200 -0.242716 4.980390 -83.930500 -11.095500 -61.078300 5.348090 -0.000007 -0.000001 -88.119100 -60.294500 -123.356000 24.328600 0.000019 0.000005 1.799730 4.596040 -21.425200 22.291600 -0.000001 0.000005 22.282700 5.370610 -2.013410 12.994500 -0.242716 -4.980390 88.283700 4.864560 -70.539200 -5.348130 -0.000001 -0.000004 -63.957400 27.701400 -9.001680 -24.328900 0.000322 -0.000009 3.971040 11.579300 -19.082100 -22.291500 -0.000108 -0.000004 10.891000 5.361210 -1.716440 -2.192480 -6.469440 -0.000000 -177.034000 -11.510700 -3.530290 39.081100 -0.000007 -0.000012 -0.049560 0.200325 13.895600 40.985400 -0.000006 -0.000013 -0.799056 3.051280 -61.143300 11.754300 -0.000000 0.000003 -0.000000 -0.000004 -16.577600 -2.192510 6.469440 -0.000001 -179.844000 10.596800 177.994000 -39.081100 -0.002282 -0.040193 -0.013843 0.081770 11.864900 -40.985400 0.000008 0.000006 3.376810 7.645920 -61.384800 -11.754300 -0.000006 -0.000006 -0.006575 -0.075967 -19.665300
